<svg xmlns="http://www.w3.org/2000/svg" xmlns:xlink="http://www.w3.org/1999/xlink" width="72" zoomAndPan="magnify" viewBox="0 0 54 46.499999" height="62" preserveAspectRatio="xMidYMid meet" version="1.0"><path fill="#01bcdd" d="M 3.550781 17.644531 L 13.011719 4.679688 C 13.421875 4.121094 14.300781 4.5625 14.09375 5.222656 L 9.835938 18.96875 C 9.746094 19.257812 9.460938 19.4375 9.160156 19.394531 L 3.957031 18.613281 C 3.5 18.542969 3.28125 18.015625 3.550781 17.644531 Z M 3.550781 17.644531 " fill-opacity="1" fill-rule="nonzero"/><path fill="#01bcdd" d="M 24.527344 0.128906 L 40.394531 2.945312 C 40.859375 3.027344 41.058594 3.585938 40.753906 3.949219 L 37.347656 7.9375 C 37.160156 8.160156 36.84375 8.21875 36.589844 8.078125 L 24.125 1.273438 C 23.515625 0.9375 23.84375 0.0078125 24.527344 0.128906 Z M 24.527344 0.128906 " fill-opacity="1" fill-rule="nonzero"/><path fill="#01bcdd" d="M 3.738281 20.441406 L 8.917969 21.21875 C 9.210938 21.261719 9.433594 21.511719 9.441406 21.808594 L 9.816406 36.003906 C 9.835938 36.695312 8.871094 36.882812 8.628906 36.234375 L 3.074219 21.261719 C 2.910156 20.824219 3.277344 20.371094 3.738281 20.441406 Z M 3.738281 20.441406 " fill-opacity="1" fill-rule="nonzero"/><path fill="#01bcdd" d="M 38.824219 9.042969 L 42.273438 5 C 42.570312 4.65625 43.125 4.738281 43.304688 5.15625 L 49.582031 19.710938 C 49.855469 20.34375 49.035156 20.875 48.570312 20.371094 L 38.84375 9.859375 C 38.632812 9.628906 38.625 9.28125 38.824219 9.042969 Z M 38.824219 9.042969 " fill-opacity="1" fill-rule="nonzero"/><path fill="#01bcdd" d="M 35.136719 38.664062 L 46.949219 31.035156 C 47.535156 30.660156 48.195312 31.390625 47.761719 31.9375 L 37.75 44.472656 C 37.453125 44.847656 36.859375 44.75 36.695312 44.300781 L 34.894531 39.390625 C 34.792969 39.121094 34.894531 38.816406 35.136719 38.664062 Z M 35.136719 38.664062 " fill-opacity="1" fill-rule="nonzero"/><path fill="#01bcdd" d="M 18.265625 42.722656 L 32.496094 39.730469 C 32.796875 39.664062 33.09375 39.832031 33.199219 40.117188 L 35.027344 45.109375 C 35.1875 45.539062 34.832031 45.984375 34.378906 45.929688 L 18.316406 43.933594 C 17.628906 43.847656 17.585938 42.867188 18.265625 42.722656 Z M 18.265625 42.722656 " fill-opacity="1" fill-rule="nonzero"/><path fill="#01bcdd" d="M 12.324219 23.210938 L 30.421875 37.25 C 30.835938 37.570312 30.683594 38.226562 30.171875 38.335938 L 12.542969 42.042969 C 12.167969 42.125 11.8125 41.84375 11.804688 41.460938 L 11.332031 23.710938 C 11.320312 23.195312 11.914062 22.894531 12.324219 23.210938 Z M 12.324219 23.210938 " fill-opacity="1" fill-rule="nonzero"/><path fill="#01bcdd" d="M 13.125 20.339844 L 35.261719 11.210938 C 35.695312 11.03125 36.164062 11.390625 36.101562 11.855469 L 33.035156 35.777344 C 32.976562 36.246094 32.425781 36.472656 32.050781 36.183594 L 12.984375 21.394531 C 12.609375 21.105469 12.6875 20.519531 13.125 20.339844 Z M 13.125 20.339844 " fill-opacity="1" fill-rule="nonzero"/><path fill="#01bcdd" d="M 38.878906 12.609375 L 50.804688 25.5 C 51.066406 25.777344 51.007812 26.226562 50.6875 26.433594 L 35.882812 35.992188 C 35.441406 36.273438 34.875 35.914062 34.941406 35.398438 L 37.820312 12.945312 C 37.886719 12.429688 38.523438 12.226562 38.878906 12.609375 Z M 38.878906 12.609375 " fill-opacity="1" fill-rule="nonzero"/><path fill="#01bcdd" d="M 18.34375 0.210938 L 33.890625 8.703125 C 34.34375 8.949219 34.308594 9.613281 33.832031 9.808594 L 12.992188 18.402344 C 12.511719 18.601562 12.019531 18.152344 12.171875 17.65625 L 17.464844 0.570312 C 17.578125 0.199219 18.003906 0.0273438 18.34375 0.210938 Z M 18.34375 0.210938 " fill-opacity="1" fill-rule="nonzero"/></svg>