<svg xmlns="http://www.w3.org/2000/svg" xmlns:xlink="http://www.w3.org/1999/xlink" width="252" zoomAndPan="magnify" viewBox="0 0 189 54" height="72" preserveAspectRatio="xMidYMid meet" version="1.0"><defs><g/><clipPath id="942ea3d802"><path d="M 22 5.300781 L 37 5.300781 L 37 13 L 22 13 Z M 22 5.300781 " clip-rule="nonzero"/></clipPath><clipPath id="c5b26914de"><path d="M 16 39 L 32 39 L 32 45.066406 L 16 45.066406 Z M 16 39 " clip-rule="nonzero"/></clipPath><clipPath id="391db71025"><path d="M 31 16 L 45.921875 16 L 45.921875 37 L 31 37 Z M 31 16 " clip-rule="nonzero"/></clipPath><clipPath id="0ae105b4d8"><path d="M 11 5.300781 L 32 5.300781 L 32 22 L 11 22 Z M 11 5.300781 " clip-rule="nonzero"/></clipPath><clipPath id="212a8680cb"><path d="M 176.667969 22.53125 L 184.621094 22.53125 L 184.621094 30.484375 L 176.667969 30.484375 Z M 176.667969 22.53125 " clip-rule="nonzero"/></clipPath><clipPath id="63e48fa389"><path d="M 180.644531 22.53125 C 178.449219 22.53125 176.667969 24.3125 176.667969 26.507812 C 176.667969 28.707031 178.449219 30.484375 180.644531 30.484375 C 182.839844 30.484375 184.621094 28.707031 184.621094 26.507812 C 184.621094 24.3125 182.839844 22.53125 180.644531 22.53125 Z M 180.644531 22.53125 " clip-rule="nonzero"/></clipPath></defs><path fill="#01bcdd" d="M 4.503906 20.59375 L 12.707031 9.355469 C 13.0625 8.871094 13.824219 9.253906 13.644531 9.828125 L 9.953125 21.742188 C 9.875 21.992188 9.625 22.152344 9.367188 22.113281 L 4.855469 21.433594 C 4.460938 21.375 4.269531 20.917969 4.503906 20.59375 Z M 4.503906 20.59375 " fill-opacity="1" fill-rule="nonzero"/><g clip-path="url(#942ea3d802)"><path fill="#01bcdd" d="M 22.6875 5.410156 L 36.441406 7.851562 C 36.847656 7.925781 37.023438 8.410156 36.753906 8.722656 L 33.804688 12.179688 C 33.640625 12.371094 33.367188 12.421875 33.144531 12.300781 L 22.339844 6.402344 C 21.8125 6.113281 22.09375 5.304688 22.6875 5.410156 Z M 22.6875 5.410156 " fill-opacity="1" fill-rule="nonzero"/></g><path fill="#01bcdd" d="M 4.667969 23.019531 L 9.15625 23.695312 C 9.410156 23.730469 9.601562 23.949219 9.609375 24.207031 L 9.9375 36.511719 C 9.953125 37.113281 9.113281 37.273438 8.90625 36.710938 L 4.089844 23.734375 C 3.949219 23.351562 4.265625 22.960938 4.667969 23.019531 Z M 4.667969 23.019531 " fill-opacity="1" fill-rule="nonzero"/><path fill="#01bcdd" d="M 35.085938 13.140625 L 38.074219 9.632812 C 38.328125 9.335938 38.8125 9.40625 38.96875 9.769531 L 44.410156 22.386719 C 44.648438 22.933594 43.9375 23.398438 43.53125 22.957031 L 35.097656 13.847656 C 34.914062 13.648438 34.910156 13.34375 35.085938 13.140625 Z M 35.085938 13.140625 " fill-opacity="1" fill-rule="nonzero"/><path fill="#01bcdd" d="M 31.886719 38.816406 L 42.128906 32.207031 C 42.632812 31.878906 43.207031 32.515625 42.832031 32.984375 L 34.152344 43.855469 C 33.894531 44.179688 33.378906 44.097656 33.238281 43.707031 L 31.675781 39.449219 C 31.589844 39.214844 31.675781 38.953125 31.886719 38.816406 Z M 31.886719 38.816406 " fill-opacity="1" fill-rule="nonzero"/><g clip-path="url(#c5b26914de)"><path fill="#01bcdd" d="M 17.257812 42.335938 L 29.597656 39.742188 C 29.855469 39.6875 30.117188 39.832031 30.207031 40.078125 L 31.792969 44.40625 C 31.929688 44.78125 31.625 45.167969 31.226562 45.117188 L 17.300781 43.386719 C 16.707031 43.3125 16.671875 42.460938 17.257812 42.335938 Z M 17.257812 42.335938 " fill-opacity="1" fill-rule="nonzero"/></g><path fill="#01bcdd" d="M 12.109375 25.421875 L 27.800781 37.59375 C 28.160156 37.871094 28.027344 38.441406 27.582031 38.535156 L 12.300781 41.75 C 11.972656 41.816406 11.667969 41.574219 11.65625 41.242188 L 11.25 25.855469 C 11.238281 25.40625 11.753906 25.148438 12.109375 25.421875 Z M 12.109375 25.421875 " fill-opacity="1" fill-rule="nonzero"/><path fill="#01bcdd" d="M 12.800781 22.933594 L 31.992188 15.019531 C 32.371094 14.863281 32.777344 15.171875 32.722656 15.578125 L 30.066406 36.316406 C 30.011719 36.722656 29.535156 36.917969 29.210938 36.667969 L 12.679688 23.84375 C 12.355469 23.59375 12.425781 23.089844 12.800781 22.933594 Z M 12.800781 22.933594 " fill-opacity="1" fill-rule="nonzero"/><g clip-path="url(#391db71025)"><path fill="#01bcdd" d="M 35.128906 16.230469 L 45.472656 27.40625 C 45.695312 27.648438 45.648438 28.035156 45.371094 28.214844 L 32.53125 36.5 C 32.152344 36.746094 31.65625 36.433594 31.714844 35.988281 L 34.210938 16.523438 C 34.269531 16.074219 34.824219 15.898438 35.128906 16.230469 Z M 35.128906 16.230469 " fill-opacity="1" fill-rule="nonzero"/></g><g clip-path="url(#0ae105b4d8)"><path fill="#01bcdd" d="M 17.328125 5.484375 L 30.808594 12.84375 C 31.199219 13.058594 31.167969 13.632812 30.753906 13.804688 L 12.6875 21.253906 C 12.273438 21.425781 11.84375 21.035156 11.976562 20.605469 L 16.566406 5.792969 C 16.664062 5.472656 17.035156 5.320312 17.328125 5.484375 Z M 17.328125 5.484375 " fill-opacity="1" fill-rule="nonzero"/></g><g fill="#ffffff" fill-opacity="1"><g transform="translate(49.217819, 41.991535)"><g><path d="M 14.3125 -29.46875 C 14.101562 -28.382812 13.875 -26.925781 13.625 -25.09375 C 13.375 -23.269531 13.117188 -21.238281 12.859375 -19 L 14.9375 -19.171875 C 15.40625 -20.148438 15.929688 -21.226562 16.515625 -22.40625 C 17.109375 -23.582031 17.695312 -24.75 18.28125 -25.90625 C 18.875 -27.070312 19.425781 -28.125 19.9375 -29.0625 C 20.457031 -30.007812 20.867188 -30.75 21.171875 -31.28125 C 21.285156 -31.488281 21.457031 -31.65625 21.6875 -31.78125 C 21.925781 -31.914062 22.207031 -31.925781 22.53125 -31.8125 C 23.0625 -31.632812 23.703125 -31.332031 24.453125 -30.90625 C 25.203125 -30.476562 25.929688 -30.03125 26.640625 -29.5625 C 27.347656 -29.09375 27.910156 -28.679688 28.328125 -28.328125 C 28.859375 -27.910156 28.972656 -27.410156 28.671875 -26.828125 C 28.554688 -26.585938 28.289062 -26.132812 27.875 -25.46875 C 27.46875 -24.8125 26.96875 -24.023438 26.375 -23.109375 C 25.789062 -22.191406 25.164062 -21.25 24.5 -20.28125 C 23.832031 -19.3125 23.195312 -18.382812 22.59375 -17.5 C 22 -16.613281 21.476562 -15.863281 21.03125 -15.25 C 21.445312 -14.300781 21.960938 -13.3125 22.578125 -12.28125 C 23.191406 -11.25 23.835938 -10.269531 24.515625 -9.34375 C 25.203125 -8.414062 25.847656 -7.597656 26.453125 -6.890625 C 27.054688 -6.179688 27.546875 -5.664062 27.921875 -5.34375 C 28.546875 -4.8125 28.519531 -4.179688 27.84375 -3.453125 C 27.457031 -3.003906 26.914062 -2.484375 26.21875 -1.890625 C 25.53125 -1.304688 24.800781 -0.789062 24.03125 -0.34375 C 23.269531 0.09375 22.566406 0.3125 21.921875 0.3125 C 21.359375 0.3125 20.710938 -0.046875 19.984375 -0.765625 C 19.265625 -1.492188 18.53125 -2.445312 17.78125 -3.625 C 17.03125 -4.800781 16.332031 -6.066406 15.6875 -7.421875 C 15.039062 -8.773438 14.507812 -10.070312 14.09375 -11.3125 L 12.0625 -11.171875 C 11.945312 -9.378906 11.835938 -7.582031 11.734375 -5.78125 C 11.628906 -3.988281 11.578125 -2.269531 11.578125 -0.625 C 11.578125 0 11.238281 0.3125 10.5625 0.3125 C 9.59375 0.3125 8.59375 0.171875 7.5625 -0.109375 C 6.53125 -0.390625 5.597656 -0.742188 4.765625 -1.171875 C 3.941406 -1.597656 3.351562 -2.03125 3 -2.46875 C 2.707031 -2.851562 2.5625 -3.34375 2.5625 -3.9375 C 2.5625 -5.144531 2.613281 -6.570312 2.71875 -8.21875 C 2.820312 -9.863281 2.960938 -11.601562 3.140625 -13.4375 C 2.671875 -14.257812 2.25 -15.117188 1.875 -16.015625 C 1.507812 -16.910156 1.328125 -17.550781 1.328125 -17.9375 C 1.328125 -18.382812 1.546875 -18.609375 1.984375 -18.609375 C 2.222656 -18.578125 2.488281 -18.566406 2.78125 -18.578125 C 3.070312 -18.597656 3.382812 -18.609375 3.71875 -18.609375 C 3.945312 -20.546875 4.175781 -22.375 4.40625 -24.09375 C 4.644531 -25.820312 4.867188 -27.296875 5.078125 -28.515625 C 5.285156 -29.742188 5.445312 -30.578125 5.5625 -31.015625 C 5.625 -31.222656 5.726562 -31.414062 5.875 -31.59375 C 6.019531 -31.769531 6.269531 -31.859375 6.625 -31.859375 C 7.007812 -31.859375 7.519531 -31.820312 8.15625 -31.75 C 8.789062 -31.675781 9.457031 -31.585938 10.15625 -31.484375 C 10.863281 -31.378906 11.507812 -31.265625 12.09375 -31.140625 C 12.6875 -31.023438 13.132812 -30.910156 13.4375 -30.796875 C 13.757812 -30.679688 14 -30.519531 14.15625 -30.3125 C 14.320312 -30.101562 14.375 -29.820312 14.3125 -29.46875 Z M 14.3125 -29.46875 "/></g></g></g><g fill="#ffffff" fill-opacity="1"><g transform="translate(78.068517, 41.991535)"><g><path d="M 2.203125 -2.65625 C 1.910156 -2.976562 1.765625 -3.429688 1.765625 -4.015625 C 1.765625 -4.515625 1.785156 -5.035156 1.828125 -5.578125 C 1.878906 -6.128906 1.929688 -6.703125 1.984375 -7.296875 C 1.660156 -7.828125 1.34375 -8.398438 1.03125 -9.015625 C 0.726562 -9.628906 0.476562 -10.207031 0.28125 -10.75 C 0.09375 -11.300781 0 -11.722656 0 -12.015625 C 0 -12.429688 0.207031 -12.640625 0.625 -12.640625 C 1.238281 -12.578125 2.015625 -12.578125 2.953125 -12.640625 C 3.484375 -14.910156 4.125 -17.203125 4.875 -19.515625 C 5.632812 -21.828125 6.441406 -23.945312 7.296875 -25.875 C 8.148438 -27.800781 8.957031 -29.3125 9.71875 -30.40625 C 9.832031 -30.582031 9.960938 -30.710938 10.109375 -30.796875 C 10.265625 -30.890625 10.488281 -30.90625 10.78125 -30.84375 C 11.195312 -30.726562 11.734375 -30.582031 12.390625 -30.40625 C 13.054688 -30.226562 13.710938 -30.035156 14.359375 -29.828125 C 14.359375 -29.972656 14.359375 -30.101562 14.359375 -30.21875 C 14.359375 -30.34375 14.375 -30.460938 14.40625 -30.578125 C 14.4375 -30.816406 14.523438 -31.007812 14.671875 -31.15625 C 14.816406 -31.300781 15.050781 -31.375 15.375 -31.375 C 15.84375 -31.375 16.472656 -31.320312 17.265625 -31.21875 C 18.066406 -31.113281 18.84375 -30.976562 19.59375 -30.8125 C 20.34375 -30.65625 20.910156 -30.503906 21.296875 -30.359375 C 21.648438 -30.242188 21.898438 -30.085938 22.046875 -29.890625 C 22.191406 -29.703125 22.28125 -29.445312 22.3125 -29.125 C 22.375 -28.675781 22.429688 -27.546875 22.484375 -25.734375 C 22.546875 -23.921875 22.664062 -21.628906 22.84375 -18.859375 C 23.019531 -16.097656 23.285156 -13.082031 23.640625 -9.8125 C 23.898438 -7.28125 24.148438 -5.242188 24.390625 -3.703125 C 24.628906 -2.171875 24.765625 -1.257812 24.796875 -0.96875 C 24.878906 -0.351562 24.582031 -0.046875 23.90625 -0.046875 C 22.957031 -0.046875 22 -0.0820312 21.03125 -0.15625 C 20.0625 -0.226562 19.171875 -0.367188 18.359375 -0.578125 C 17.546875 -0.785156 16.9375 -1.078125 16.53125 -1.453125 C 16.320312 -1.628906 16.132812 -2.144531 15.96875 -3 C 15.8125 -3.851562 15.660156 -4.929688 15.515625 -6.234375 C 14.710938 -6.140625 13.875 -6.054688 13 -5.984375 C 12.132812 -5.910156 11.25 -5.84375 10.34375 -5.78125 C 10.195312 -4.132812 10.148438 -2.5625 10.203125 -1.0625 C 10.203125 -0.769531 10.132812 -0.523438 10 -0.328125 C 9.875 -0.140625 9.648438 -0.046875 9.328125 -0.046875 C 7.910156 -0.046875 6.523438 -0.296875 5.171875 -0.796875 C 3.816406 -1.296875 2.828125 -1.914062 2.203125 -2.65625 Z M 14.890625 -13.296875 C 14.773438 -14.890625 14.679688 -16.492188 14.609375 -18.109375 C 14.535156 -19.734375 14.46875 -21.28125 14.40625 -22.75 C 14.40625 -23.101562 14.285156 -23.3125 14.046875 -23.375 C 13.867188 -23.40625 13.722656 -23.300781 13.609375 -23.0625 C 13.109375 -21.53125 12.660156 -19.910156 12.265625 -18.203125 C 11.867188 -16.492188 11.519531 -14.769531 11.21875 -13.03125 Z M 14.890625 -13.296875 "/></g></g></g><g fill="#ffffff" fill-opacity="1"><g transform="translate(104.224134, 41.991535)"><g><path d="M 1.375 -5.78125 C 1.601562 -8.726562 1.835938 -11.394531 2.078125 -13.78125 C 2.316406 -16.164062 2.695312 -18.40625 3.21875 -20.5 L 3.21875 -20.6875 C 3.3125 -22.09375 3.132812 -23.332031 2.6875 -24.40625 C 2.25 -25.488281 1.882812 -26.207031 1.59375 -26.5625 C 1.351562 -26.882812 1.359375 -27.242188 1.609375 -27.640625 C 1.859375 -28.035156 2.101562 -28.304688 2.34375 -28.453125 C 3.550781 -29.222656 4.835938 -29.8125 6.203125 -30.21875 C 7.578125 -30.632812 8.867188 -30.921875 10.078125 -31.078125 C 11.285156 -31.242188 12.195312 -31.328125 12.8125 -31.328125 C 13.164062 -31.328125 13.578125 -31.316406 14.046875 -31.296875 C 14.523438 -31.285156 14.984375 -31.253906 15.421875 -31.203125 L 15.46875 -31.234375 C 16.820312 -31.148438 17.914062 -30.894531 18.75 -30.46875 C 19.59375 -30.039062 20.425781 -29.617188 21.25 -29.203125 C 22.3125 -28.671875 23.195312 -27.976562 23.90625 -27.125 C 24.613281 -26.269531 25.148438 -25.117188 25.515625 -23.671875 C 25.890625 -22.234375 26.078125 -20.335938 26.078125 -17.984375 C 26.078125 -15.328125 25.671875 -12.929688 24.859375 -10.796875 C 24.046875 -8.660156 22.972656 -6.828125 21.640625 -5.296875 C 20.316406 -3.765625 18.84375 -2.550781 17.21875 -1.65625 C 15.601562 -0.757812 14.003906 -0.191406 12.421875 0.046875 L 11.96875 0.046875 C 10.789062 0.222656 9.582031 0.25 8.34375 0.125 C 7.113281 0.0078125 5.957031 -0.285156 4.875 -0.765625 C 3.800781 -1.253906 2.910156 -1.910156 2.203125 -2.734375 C 1.910156 -3.035156 1.691406 -3.515625 1.546875 -4.171875 C 1.398438 -4.835938 1.34375 -5.375 1.375 -5.78125 Z M 11.890625 -7.375 C 12.117188 -7.4375 12.3125 -7.492188 12.46875 -7.546875 C 12.632812 -7.609375 12.78125 -7.65625 12.90625 -7.6875 C 13.519531 -7.894531 14.15625 -8.414062 14.8125 -9.25 C 15.476562 -10.09375 16.039062 -11.316406 16.5 -12.921875 C 16.957031 -14.523438 17.1875 -16.566406 17.1875 -19.046875 C 17.1875 -20.335938 17.015625 -21.328125 16.671875 -22.015625 C 16.335938 -22.710938 15.9375 -23.207031 15.46875 -23.5 C 15 -23.800781 14.523438 -23.976562 14.046875 -24.03125 C 13.429688 -24.007812 12.875 -23.984375 12.375 -23.953125 C 11.875 -23.921875 11.414062 -23.875 11 -23.8125 C 11.03125 -23.8125 11.101562 -23.785156 11.21875 -23.734375 C 11.71875 -23.347656 12.003906 -22.859375 12.078125 -22.265625 C 12.160156 -21.679688 12.203125 -21.226562 12.203125 -20.90625 C 12.203125 -20.875 12.191406 -20.832031 12.171875 -20.78125 C 12.160156 -20.738281 12.15625 -20.691406 12.15625 -20.640625 C 11.945312 -18.898438 11.707031 -17.070312 11.4375 -15.15625 C 11.175781 -13.238281 10.925781 -11.015625 10.6875 -8.484375 C 10.6875 -8.015625 10.722656 -7.695312 10.796875 -7.53125 C 10.878906 -7.375 11.242188 -7.320312 11.890625 -7.375 Z M 11.890625 -7.375 "/></g></g></g><g fill="#ffffff" fill-opacity="1"><g transform="translate(131.616835, 41.991535)"><g><path d="M 13.078125 -29.46875 C 12.867188 -28.207031 12.609375 -26.492188 12.296875 -24.328125 C 11.992188 -22.160156 11.691406 -19.726562 11.390625 -17.03125 C 11.097656 -14.332031 10.847656 -11.566406 10.640625 -8.734375 C 10.441406 -5.910156 10.34375 -3.207031 10.34375 -0.625 C 10.34375 0 10.003906 0.3125 9.328125 0.3125 C 8.347656 0.3125 7.34375 0.171875 6.3125 -0.109375 C 5.28125 -0.390625 4.351562 -0.742188 3.53125 -1.171875 C 2.707031 -1.597656 2.117188 -2.03125 1.765625 -2.46875 C 1.472656 -2.851562 1.328125 -3.34375 1.328125 -3.9375 C 1.328125 -5.164062 1.382812 -6.617188 1.5 -8.296875 C 1.613281 -9.984375 1.757812 -11.769531 1.9375 -13.65625 C 2.113281 -15.539062 2.320312 -17.414062 2.5625 -19.28125 C 2.800781 -21.15625 3.03125 -22.898438 3.25 -24.515625 C 3.46875 -26.140625 3.671875 -27.523438 3.859375 -28.671875 C 4.054688 -29.828125 4.210938 -30.609375 4.328125 -31.015625 C 4.390625 -31.222656 4.492188 -31.414062 4.640625 -31.59375 C 4.785156 -31.769531 5.035156 -31.859375 5.390625 -31.859375 C 5.773438 -31.859375 6.28125 -31.820312 6.90625 -31.75 C 7.539062 -31.675781 8.210938 -31.585938 8.921875 -31.484375 C 9.628906 -31.378906 10.273438 -31.265625 10.859375 -31.140625 C 11.453125 -31.023438 11.882812 -30.910156 12.15625 -30.796875 C 12.507812 -30.679688 12.765625 -30.519531 12.921875 -30.3125 C 13.085938 -30.101562 13.140625 -29.820312 13.078125 -29.46875 Z M 13.078125 -29.46875 "/></g></g></g><g fill="#ffffff" fill-opacity="1"><g transform="translate(146.064274, 41.991535)"><g><path d="M 1.5 -25.453125 C 1.238281 -26.242188 1.3125 -26.800781 1.71875 -27.125 C 1.988281 -27.332031 2.515625 -27.671875 3.296875 -28.140625 C 4.078125 -28.617188 5.023438 -29.113281 6.140625 -29.625 C 7.265625 -30.144531 8.472656 -30.585938 9.765625 -30.953125 C 11.054688 -31.316406 12.335938 -31.5 13.609375 -31.5 C 14.140625 -31.5 14.796875 -31.378906 15.578125 -31.140625 C 16.359375 -30.910156 17.164062 -30.625 18 -30.28125 C 18.84375 -29.945312 19.601562 -29.617188 20.28125 -29.296875 C 20.957031 -28.972656 21.441406 -28.738281 21.734375 -28.59375 C 22.265625 -28.289062 22.757812 -27.65625 23.21875 -26.6875 C 23.675781 -25.71875 23.90625 -24.703125 23.90625 -23.640625 C 23.90625 -21.109375 23.519531 -18.910156 22.75 -17.046875 C 21.988281 -15.191406 20.632812 -13.796875 18.6875 -12.859375 C 19.3125 -12.066406 19.988281 -11.265625 20.71875 -10.453125 C 21.457031 -9.640625 22.15625 -8.921875 22.8125 -8.296875 C 23.476562 -7.679688 23.972656 -7.210938 24.296875 -6.890625 C 24.648438 -6.566406 24.789062 -6.210938 24.71875 -5.828125 C 24.644531 -5.453125 24.492188 -5.054688 24.265625 -4.640625 C 24.054688 -4.316406 23.726562 -3.894531 23.28125 -3.375 C 22.84375 -2.863281 22.335938 -2.359375 21.765625 -1.859375 C 21.191406 -1.359375 20.613281 -0.941406 20.03125 -0.609375 C 19.457031 -0.285156 18.9375 -0.125 18.46875 -0.125 C 17.9375 -0.125 17.332031 -0.53125 16.65625 -1.34375 C 15.976562 -2.15625 15.285156 -3.203125 14.578125 -4.484375 C 13.867188 -5.765625 13.191406 -7.117188 12.546875 -8.546875 C 11.898438 -9.972656 11.359375 -11.304688 10.921875 -12.546875 C 10.765625 -11.109375 10.628906 -9.484375 10.515625 -7.671875 C 10.398438 -5.859375 10.28125 -3.726562 10.15625 -1.28125 C 10.132812 -0.664062 9.796875 -0.359375 9.140625 -0.359375 C 8.171875 -0.359375 7.238281 -0.507812 6.34375 -0.8125 C 5.445312 -1.125 4.648438 -1.507812 3.953125 -1.96875 C 3.265625 -2.425781 2.742188 -2.875 2.390625 -3.3125 C 2.085938 -3.695312 1.9375 -4.179688 1.9375 -4.765625 C 2 -7.148438 2.125 -9.476562 2.3125 -11.75 C 2.507812 -14.019531 2.71875 -16.046875 2.9375 -17.828125 C 3.15625 -19.609375 3.351562 -20.957031 3.53125 -21.875 C 3.53125 -21.90625 3.519531 -21.921875 3.5 -21.921875 C 3.488281 -21.921875 3.484375 -21.9375 3.484375 -21.96875 C 3.304688 -22.132812 3.078125 -22.453125 2.796875 -22.921875 C 2.523438 -23.398438 2.265625 -23.890625 2.015625 -24.390625 C 1.765625 -24.890625 1.59375 -25.242188 1.5 -25.453125 Z M 11.9375 -20.640625 C 11.8125 -19.722656 11.679688 -18.820312 11.546875 -17.9375 C 11.421875 -17.050781 11.296875 -16.140625 11.171875 -15.203125 C 12.054688 -15.378906 12.890625 -15.753906 13.671875 -16.328125 C 14.453125 -16.898438 15.09375 -17.613281 15.59375 -18.46875 C 16.09375 -19.320312 16.34375 -20.25 16.34375 -21.25 C 16.34375 -22.070312 16.046875 -22.804688 15.453125 -23.453125 C 14.867188 -24.109375 13.988281 -24.4375 12.8125 -24.4375 C 12.28125 -24.4375 11.753906 -24.316406 11.234375 -24.078125 C 10.722656 -23.847656 10.21875 -23.554688 9.71875 -23.203125 C 9.863281 -23.203125 9.992188 -23.1875 10.109375 -23.15625 C 10.234375 -23.125 10.351562 -23.09375 10.46875 -23.0625 C 10.789062 -22.945312 11.144531 -22.695312 11.53125 -22.3125 C 11.914062 -21.925781 12.050781 -21.367188 11.9375 -20.640625 Z M 11.9375 -20.640625 "/></g></g></g><g clip-path="url(#212a8680cb)"><g clip-path="url(#63e48fa389)"><path fill="#01bcdd" d="M 176.667969 22.53125 L 184.621094 22.53125 L 184.621094 30.484375 L 176.667969 30.484375 Z M 176.667969 22.53125 " fill-opacity="1" fill-rule="nonzero"/></g></g></svg>